{"title":"Elementary S02E16 HDTV x264 AAC E Subs [GWC].mp4","uid":9676584,"size":128502256,"categoryP":"video","categoryS":"tv_shows","magnet":"?xt=urn:btih:3ccc4ff2c17ab229cfc1f4ace9ba7cc7e2a6a1bd&amp;dn=Elementary+S02E16+HDTV+x264+AAC+E+Subs+%5BGWC%5D.mp4&amp;tr=udp%3A%2F%2Ftracker.openbittorrent.com%3A80&amp;tr=udp%3A%2F%2Fopen.demonii.com%3A1337&amp;tr=udp%3A%2F%2Ftracker.coppersurfer.tk%3A6969&amp;tr=udp%3A%2F%2Fexodus.desync.com%3A6969","seeders":2,"leechers":1,"uploader":"canc232","files":1,"time":1393572574,"description":"Elementary S02E16 HDTV x264 AAC E Subs [GWC]\n\n\nSTORYLINE :\nA modern take on the cases of Sherlock Holmes, with the detective now living in New York City.\n\n\nSCREENS : &lt;a href=&quot;\nhttp://i.imgur.com/t0tFVRl.jpg&quot; rel=&quot;nofollow&quot; target=&quot;_NEW&quot;&gt;\nhttp://i.imgur.com/t0tFVRl.jpg&lt;/a&gt; &lt;a href=&quot;\nhttp://i.imgur.com/YaFZCT4.jpg&quot; rel=&quot;nofollow&quot; target=&quot;_NEW&quot;&gt;\nhttp://i.imgur.com/YaFZCT4.jpg&lt;/a&gt; &lt;a href=&quot;\nhttp://i.imgur.com/ov9IeIQ.jpg&quot; rel=&quot;nofollow&quot; target=&quot;_NEW&quot;&gt;\nhttp://i.imgur.com/ov9IeIQ.jpg&lt;/a&gt;\n\n\nMEDIA INFO :\nGeneral \nFormat : MPEG-4 \nFormat profile : Base Media \nFile size : 123 MiB \nDuration : 43mn 32s \nOverall bit rate mode : Variable \nOverall bit rate : 394 Kbps \n\nVideo \nFormat : AVC \nFormat profile : &lt;a class=&quot;__cf_email__&quot; href=&quot;/cdn-cgi/l/email-protection&quot; data-cfemail=&quot;a5edccc2cde5e9968b95&quot;&gt;[email&amp;#160;protected]&lt;/a&gt;&lt;script cf-hash='f9e31' type=&quot;text/javascript&quot;&gt;\n/* &lt;![CDATA[ */!function(){try{var t=&quot;currentScript&quot;in document?document.currentScript:function(){for(var t=document.getElementsByTagName(&quot;script&quot;),e=t.length;e--;)if(t[e].getAttribute(&quot;cf-hash&quot;))return t[e]}();if(t&amp;&amp;t.previousSibling){var e,r,n,i,c=t.previousSibling,a=c.getAttribute(&quot;data-cfemail&quot;);if(a){for(e=&quot;&quot;,r=parseInt(a.substr(0,2),16),n=2;a.length-n;n+=2)i=parseInt(a.substr(n,2),16)^r,e+=String.fromCharCode(i);e=document.createTextNode(e),c.parentNode.replaceChild(e,c)}}}catch(u){}}();/* ]]&gt; */&lt;/script&gt; \nFormat settings, CABAC : Yes \nFormat settings, ReFrames : 4 frames \nDuration : 43mn 31s \nBit rate : 330 Kbps \nMaximum bit rate : 1 904 Kbps \nWidth : 720 pixels \nHeight : 404 pixels \nDisplay aspect ratio : 16:9 \nFrame rate : 23.976 fps \nStream size : 103 MiB (84%) \nTitle : Elementary S02E16 HDTV x264 AAC E Subs [GWC] \nWriting library : x264 core \n\nAudio \nFormat : AAC \nFormat profile : HE-AAC / LC \nDuration : 43mn 32s \nBit rate mode : Variable \nChannel(s) : 2 channels \nSampling rate : 48.0 KHz / 24.0 KHz \nStream size : 18.6 MiB (15%) \nTitle : Elementary S02E16 HDTV x264 AAC E Subs [GWC] \nLanguage : English \n\nText \nFormat : Timed Text \nDuration : 43mn 6s \nTitle : English Subtitle by elderman \nLanguage : English","torrent":{"xt":"urn:btih:3ccc4ff2c17ab229cfc1f4ace9ba7cc7e2a6a1bd","amp;dn":"Elementary+S02E16+HDTV+x264+AAC+E+Subs+%5BGWC%5D.mp4","amp;tr":["udp%3A%2F%2Ftracker.openbittorrent.com%3A80","udp%3A%2F%2Fopen.demonii.com%3A1337","udp%3A%2F%2Ftracker.coppersurfer.tk%3A6969","udp%3A%2F%2Fexodus.desync.com%3A6969"],"infoHash":"3ccc4ff2c17ab229cfc1f4ace9ba7cc7e2a6a1bd","infoHashBuffer":{"type":"Buffer","data":[60,204,79,242,193,122,178,41,207,193,244,172,233,186,124,199,226,166,161,189]},"announce":[],"urlList":[]}}